<svg xmlns:xlink="http://www.w3.org/1999/xlink" id="Group_238" data-name="Group 238" xmlns="http://www.w3.org/2000/svg" width="21.18" height="16" viewBox="0 0 21.18 16" class="Drawer___StyledLogoSmall-sc-1h8r6oo-6 irYKsk"><g id="Group_90" data-name="Group 90" transform="translate(0.3 0.3)"><g id="Group_77" data-name="Group 77"><rect id="Rectangle_48" data-name="Rectangle 48" width="3.487" height="8.725" transform="translate(17.513 6.749)" fill="#FFFFFF"></rect><path id="Path_64" data-name="Path 64" d="M60.874,5.863l3.11-1.351a.627.627,0,0,0,.377-.575V2.4h-.013L61.4,3.68a.88.88,0,0,0-.53.807Z" transform="translate(-43.361 -0.185)" fill="#00B3ED"></path><path id="Path_65" data-name="Path 65" d="M44.918,6.7a4.836,4.836,0,0,1,9.558,1.042,4.734,4.734,0,0,1-.092.884L56,12.145a7.852,7.852,0,1,0-5.109,3.22L49.63,12.571A4.839,4.839,0,0,1,44.918,6.7" transform="translate(-41.905 0)" fill="#FFFFFF"></path><path id="Path_66" data-name="Path 66" d="M56.725,16.339H53.1l-2.285-5.079h3.613Z" transform="translate(-42.589 -0.865)" fill="#00B3ED"></path></g></g></svg>